# xmcd
#
# Track frame offsets:
# 150
# 8093
# 25383
# 39827
# 53734
# 69381
# 85539
# 97124
# 117343
# 134667
# 147297
# 155240
# 182164
#
# Disc length: 2635 seconds
#
#
# Revision: 0
# Processed by: cddbd v1.5.2PL0 Copyright (c) Steve Scherf et al.
# Submitted via: FreeRIP 2.30 
#
DISCID=af0a490d
DTITLE=Moondogs blues party - Moondogs blues party - O cadelo lunático
DYEAR=2006
DGENRE=
TTITLE0=walking night in mississipi
TTITLE1=childhood soul
TTITLE2=loveless boy
TTITLE3=no chance
TTITLE4=brakfast blues
TTITLE5=out of here
TTITLE6=nothing chances
TTITLE7=unsatisfied blues
TTITLE8=lay down human - get up warrior (auxilio)
TTITLE9=blues after dead
TTITLE10=walking night in mississipi - part 3 - cara B
TTITLE11=Summer plain - Cara C
TTITLE12=Bomba H
EXTD=
EXTT0=
EXTT1=
EXTT2=
EXTT3=
EXTT4=
EXTT5=
EXTT6=
EXTT7=
EXTT8=
EXTT9=
EXTT10=
EXTT11=
EXTT12=
PLAYORDER=
